
<svg width="40px" height="40px" viewBox="0 0 40 40" version="1.1" xmlns="http://www.w3.org/2000/svg" xmlns:xlink="http://www.w3.org/1999/xlink">
    <g id="1.-Website" stroke="none" stroke-width="1" fill="none" fill-rule="evenodd">
        <g id="Fly-out-3-levels---XXL" transform="translate(-120.000000, -38.000000)">
            <g id="FLY-OUT" transform="translate(60.000000, 24.000000)">
                <g id="--nav" transform="translate(40.000000, 0.000000)">
                    <g id="shape" transform="translate(20.000000, 14.000000)">
                        <path d="M7.08359815,0 C7.19508898,0.637720186 7.23654069,3.45574434 7.95515624,6.26877516 C8.7864006,9.52284914 11.0032092,12.6842147 15.0617886,13.6007956 L15.0611424,13.5823902 C15.0216913,10.2228436 13.9871136,6.55072024 12.0849265,3.33351464 L35.4111655,3.33351464 C41.7951791,11.4408995 40.8883414,28.0475417 36.5349804,37.7043237 L38.8357206,40 L22.0401281,39.9999287 C24.0923454,36.1265275 25.3884262,30.1552125 24.4157402,27.4666583 C24.4157402,27.4666583 20.0813258,36.3917006 6.5704523,36.0030921 L4.16746986,38.3997075 L4.16764853,24.1496574 C8.29404408,24.6014528 11.1704717,23.2898978 12.9272571,20.9993916 C2.1434775,20.0505574 0,11.2699566 0,11.2699566 L4.85485368,7.23320211 C4.40424493,5.53475495 4.19984508,1.15239034 4.19984508,1.15239034 Z" id="Combined-Shape" fill="#000105"></path>
                        <path d="M34.5899212,12.6333154 C34.6495974,10.8424915 33.2430978,9.34199439 31.4488817,9.28278771 C29.6543082,9.22322436 28.1513261,10.6270648 28.0920073,12.4178886 C28.0323311,14.2087125 29.4384734,15.7088529 31.2330469,15.7684163 C33.027263,15.8279796 34.5302451,14.4241392 34.5899212,12.6333154" id="Fill-24" fill="#FFFFFF"></path>
                        <path d="M32.7910954,12.7733427 C32.8178961,11.9701292 32.1871868,11.2974556 31.382809,11.2710623 C30.578074,11.2443123 29.9041262,11.8738291 29.8773256,12.676686 C29.8505249,13.4795429 30.4812342,14.1525731 31.2859693,14.1789665 C32.090347,14.2057165 32.7642947,13.5761996 32.7910954,12.7733427" id="Fill-26" fill="#000105"></path>
                    </g>
                </g>
            </g>
        </g>
    </g>
</svg>
