<svg width="160px" height="159.994053px" viewBox="0 0 160 159.994053" version="1.1"
     xmlns="http://www.w3.org/2000/svg" xmlns:xlink="http://www.w3.org/1999/xlink">
    <defs>
        <filter x="-1.2%" y="-1.1%" width="102.8%" height="102.6%" filterUnits="objectBoundingBox"
                id="filter-zcpyi6m8hn-1">
            <feOffset dx="0" dy="2" in="SourceAlpha" result="shadowOffsetOuter1"></feOffset>
            <feGaussianBlur stdDeviation="2" in="shadowOffsetOuter1" result="shadowBlurOuter1"></feGaussianBlur>
            <feColorMatrix values="0 0 0 0 0   0 0 0 0 0   0 0 0 0 0  0 0 0 0.5 0" type="matrix"
                           in="shadowBlurOuter1" result="shadowMatrixOuter1"></feColorMatrix>
            <feMerge>
                <feMergeNode in="shadowMatrixOuter1"></feMergeNode>
                <feMergeNode in="SourceGraphic"></feMergeNode>
            </feMerge>
        </filter>
    </defs>
    <g id="1.-Website" stroke="none" stroke-width="1" fill="none" fill-rule="evenodd">
        <g id="Home---XXL" transform="translate(-59.9998, -6978.9995)">
            <g id="FOOTER" transform="translate(16, 6923)">
                <g id="left" filter="url(#filter-zcpyi6m8hn-1)" transform="translate(43.9998, 48)">
                    <g id="--logo-outline" transform="translate(0, 7.9995)">
                        <path d="M138.359085,50.5310734 C138.597425,43.3672316 132.972598,37.3666369 125.794984,37.1299435 C118.61737,36.8908712 112.605239,42.5060957 112.366899,49.6699376 C112.129751,56.8325899 117.754578,62.8331847 124.932192,63.0710675 C132.108615,63.3089503 138.120745,57.6949153 138.359085,50.5310734"
                              id="Fill-135" fill="#FFFFFF"></path>
                        <path d="M131.163953,51.0911686 C131.271206,47.8785608 128.748376,45.1892953 125.529592,45.082248 C122.312,44.9752007 119.616373,47.4931906 119.509119,50.704609 C119.403058,53.9172168 121.924697,56.6076717 125.143481,56.7135296 C128.361073,56.8205769 131.0567,54.3037764 131.163953,51.0911686"
                              id="Fill-136" fill="#000000"></path>
                        <path d="M28.3338784,0 L16.7994063,4.60898008 C16.7994063,4.60898008 17.6181047,22.1385668 19.4199563,28.9313113 L0,45.0776093 C0,45.0776093 8.5838209,80.1855486 51.7067063,83.9845376 C45.6063898,91.9393399 36.1323684,96.9491525 22.9402405,96.9491525 C20.9357998,96.9491525 18.8479399,96.8337794 16.6707026,96.5958965 L16.6707026,143.364853 L16.6707026,153.592626 L26.2817696,144 C27.4293774,144.033304 28.5638766,144.048766 29.6781169,144.048766 C81.0499552,144.048766 97.6634561,109.861433 97.6634561,109.861433 C101.553168,120.617306 96.3692691,144.501933 88.1596422,159.994053 L131.166933,159.994053 L141.425093,159.994053 L155.341775,159.994053 L146.140653,150.809396 C163.553785,112.18317 167.180131,45.760333 141.644366,13.3333333 L48.3389598,13.3333333 C55.9598864,26.2206363 60.0927048,40.9313113 60.239284,54.3859649 C44.016661,50.7142432 35.1456402,38.0850431 31.8207949,25.074041 C28.9464126,13.8221826 28.7795745,2.55010407 28.3338784,0 L28.3338784,0 Z M25.8551407,4.05352364 C26.2436351,9.08236693 26.9050291,17.3428486 29.0596241,25.7769848 C33.2758616,42.280107 44.4111139,53.7187035 59.6088743,57.1584894 L63.1279668,57.955397 L63.0886407,54.3538507 C62.9504034,41.642581 59.4551449,28.2581029 53.17369,16.1772227 L140.238159,16.1772227 C163.625287,47.4278918 160.871267,111.201903 143.541554,149.642581 L142.734772,151.432649 L144.125487,152.820696 L148.463278,157.151353 L141.425093,157.151353 L131.166933,157.151353 L92.7512654,157.151353 C101.256434,138.8427 103.639836,118.007731 100.343591,108.895629 L98.0614842,102.59887 L95.1024911,108.614927 C95.0619733,108.695807 90.968481,116.878977 80.9069511,124.93488 C75.0151823,129.652096 68.2498968,133.410645 60.7981917,136.108237 C51.452874,139.490931 40.981399,141.204877 29.6781169,141.204877 C28.5865189,141.204877 27.471087,141.189414 26.3639969,141.1573 L25.1353534,141.121618 L24.2677952,141.98989 L19.5200592,146.727327 L19.5200592,143.364853 L19.5200592,99.6895629 C20.6795841,99.7585489 21.8236169,99.7930419 22.9402405,99.7930419 C36.1764614,99.7930419 46.9065354,94.9235801 53.9685544,85.7127565 L57.1170279,81.6057092 L51.9569634,81.151353 C34.9716518,79.6550699 21.548334,73.0466845 12.0564371,61.5117455 C6.81057011,55.1376747 4.26628888,48.921796 3.27956062,46.0529289 L21.2432586,31.1174547 L22.6387402,29.9565864 L22.1739769,28.2045792 C20.8213965,23.1008029 20.0277237,11.2375855 19.7548243,6.49182278 L25.8551407,4.05352364 Z"
                              id="Fill-137" fill="#FFFFFF"></path>
                    </g>
                </g>
            </g>
        </g>
    </g>
</svg>
