<svg fill="none" xmlns="http://www.w3.org/2000/svg" viewBox="0 0 129 128">
  <circle cx="64.5" cy="64" r="64" fill="#6557B8"/>
  <path d="M84.99 40.38a1.64 1.64 0 0 0 0-2.33l-3.186-3.162-.01.011a25.82 25.82 0 0 0-18.202-6.892 25.801 25.801 0 0 0-17.846 7.755 25.42 25.42 0 0 0-7.245 17.95 25.426 25.426 0 0 0 7.515 17.84l2.613 2.594a1.665 1.665 0 0 0 2.346 0l2.346-2.329a1.64 1.64 0 0 0 0-2.329l-2.613-2.594a18.864 18.864 0 0 1-5.566-13.182 18.859 18.859 0 0 1 5.302-13.288 19.14 19.14 0 0 1 13.15-5.823 19.16 19.16 0 0 1 13.504 4.958l-5.877 5.834a10.832 10.832 0 0 0-7.628-2.547 10.813 10.813 0 0 0-7.28 3.407 10.656 10.656 0 0 0-2.873 7.462 10.661 10.661 0 0 0 3.133 7.358l10.592 10.512a4.1 4.1 0 0 1 1.17 2.898 4.101 4.101 0 0 1-1.214 2.88 4.163 4.163 0 0 1-2.902 1.206 4.164 4.164 0 0 1-2.92-1.164l-2.612-2.592a1.665 1.665 0 0 0-2.346 0L43.438 87.62a1.64 1.64 0 0 0 0 2.329l3.186 3.163.011-.011a25.82 25.82 0 0 0 18.202 6.892 25.801 25.801 0 0 0 17.846-7.755 25.42 25.42 0 0 0 7.245-17.95 25.426 25.426 0 0 0-7.515-17.84L79.8 53.856a1.665 1.665 0 0 0-2.347 0l-2.345 2.329a1.64 1.64 0 0 0 0 2.328l2.612 2.593a18.865 18.865 0 0 1 5.566 13.181 18.86 18.86 0 0 1-5.302 13.288 19.14 19.14 0 0 1-13.15 5.824 19.16 19.16 0 0 1-13.504-4.959l5.877-5.833a10.832 10.832 0 0 0 7.628 2.547 10.813 10.813 0 0 0 7.28-3.406 10.656 10.656 0 0 0 2.873-7.462 10.661 10.661 0 0 0-3.134-7.358l-10.59-10.513a4.1 4.1 0 0 1-1.158-2.893 4.1 4.1 0 0 1 1.214-2.87 4.163 4.163 0 0 1 2.892-1.206 4.164 4.164 0 0 1 2.915 1.149l2.613 2.592a1.665 1.665 0 0 0 2.346 0l12.904-12.808Z" fill="#18191A"/>
</svg>
